<?xml version="1.0" encoding="UTF-8"?>
<svg id="logo" xmlns="http://www.w3.org/2000/svg" viewBox="0 0 200 43.62">
  <defs>
    <style>
      .cls-1 {
        fill: #242323;
      }
    </style>
  </defs>
  <path class="cls-1" d="M51.54,27.3h-6.9l-1.3,3.85h-4.09l6.68-18.73h4.42l6.63,18.73h-4.24l-1.21-3.85ZM50.45,24.08l-2.34-7.37-2.41,7.37h4.75Z"/>
  <g>
    <path class="cls-1" d="M66.87,28.22c.89,0,1.6-.1,2.16-.29,1.05-.37,1.57-1.07,1.57-2.08,0-.59-.26-1.05-.78-1.38-.52-.32-1.34-.6-2.45-.84l-1.9-.43c-1.87-.42-3.16-.88-3.87-1.38-1.21-.83-1.81-2.12-1.81-3.89,0-1.61.58-2.94,1.75-4.01s2.89-1.6,5.15-1.6c1.89,0,3.51.5,4.84,1.5,1.34,1,2.04,2.46,2.1,4.37h-3.61c-.06-1.08-.54-1.85-1.41-2.3-.58-.3-1.31-.45-2.18-.45-.97,0-1.74.19-2.31.58s-.87.93-.87,1.63c0,.64.28,1.12.85,1.44.37.21,1.15.46,2.34.74l3.09.74c1.36.32,2.38.76,3.07,1.3,1.07.84,1.61,2.07,1.61,3.67s-.63,3-1.88,4.09c-1.25,1.08-3.03,1.63-5.32,1.63s-4.18-.53-5.52-1.6-2.01-2.54-2.01-4.4h3.58c.11.82.34,1.43.67,1.84.61.74,1.65,1.11,3.13,1.11Z"/>
    <path class="cls-1" d="M67.02,31.35c-2.35,0-4.22-.54-5.56-1.62-1.35-1.08-2.04-2.58-2.04-4.46v-.07h3.72v.06c.12.8.34,1.41.66,1.8.59.72,1.63,1.08,3.08,1.08.87,0,1.59-.1,2.13-.29,1.03-.37,1.52-1.02,1.52-2.01,0-.57-.24-1-.75-1.32-.51-.31-1.33-.59-2.43-.83l-1.9-.43c-1.87-.42-3.18-.89-3.9-1.39-1.22-.84-1.85-2.17-1.85-3.95,0-1.62.6-2.99,1.78-4.06,1.18-1.07,2.93-1.61,5.2-1.61,1.9,0,3.54.51,4.88,1.52,1.35,1.01,2.07,2.5,2.13,4.42v.07s-3.75,0-3.75,0v-.07c-.07-1.05-.53-1.8-1.38-2.24-.57-.29-1.29-.44-2.15-.44-.95,0-1.71.19-2.27.57-.55.37-.83.9-.83,1.57,0,.62.27,1.07.82,1.37.36.21,1.14.45,2.32.74l3.09.74c1.36.33,2.4.77,3.1,1.32,1.09.85,1.64,2.11,1.64,3.72s-.64,3.05-1.91,4.14c-1.26,1.09-3.07,1.64-5.36,1.64ZM59.56,25.35c.02,1.8.68,3.24,1.98,4.27,1.32,1.05,3.16,1.59,5.47,1.59s4.03-.54,5.27-1.61c1.23-1.07,1.86-2.42,1.86-4.03s-.53-2.78-1.58-3.61c-.68-.54-1.7-.97-3.04-1.29l-3.09-.74c-1.19-.28-1.99-.54-2.36-.75-.59-.33-.89-.83-.89-1.5,0-.72.3-1.29.9-1.69.59-.4,1.38-.6,2.35-.6.88,0,1.62.15,2.21.46.88.46,1.37,1.23,1.45,2.29h3.46c-.08-1.84-.78-3.27-2.07-4.24-1.32-.99-2.93-1.49-4.8-1.49-2.24,0-3.95.53-5.1,1.58-1.15,1.04-1.73,2.37-1.73,3.95,0,1.73.6,3.02,1.78,3.83.7.49,2,.95,3.85,1.37l1.9.43c1.12.24,1.95.53,2.47.85.54.34.81.82.81,1.44,0,1.04-.55,1.77-1.62,2.15-.56.2-1.29.3-2.18.3-1.49,0-2.57-.38-3.19-1.13-.33-.4-.56-1.01-.68-1.81h-3.45Z"/>
  </g>
  <path class="cls-1" d="M92.16,12.42v3.32h-5.6v15.41h-3.94v-15.41h-5.63v-3.32h15.17Z"/>
  <path class="cls-1" d="M108.03,23.42h-8.6v4.37h9.91v3.37h-13.74V12.42h13.74v3.32h-9.91v4.42h8.6v3.25Z"/>
  <path class="cls-1" d="M144.7,31.15h-3.91l-7.65-13.3v13.3h-3.65V12.42h4.1l7.46,13.08v-13.08h3.65v18.73Z"/>
  <path class="cls-1" d="M185.04,12.43v3.32h-5.6v15.41h-3.94v-15.41h-5.63v-3.32h15.17Z"/>
  <path class="cls-1" d="M158.43,16.17c3.07,0,5.56,2.5,5.56,5.56s-2.5,5.56-5.56,5.56-5.56-2.5-5.56-5.56,2.5-5.56,5.56-5.56M158.43,12.32c-5.2,0-9.42,4.22-9.42,9.42s4.22,9.42,9.42,9.42,9.42-4.22,9.42-9.42-4.22-9.42-9.42-9.42h0Z"/>
  <rect class="cls-1" x="112.55" y="29.49" width="13.74" height="1.66"/>
  <g>
    <path class="cls-1" d="M27.14,17.79l-.5,2.52-2.2,10.86h-4.04s-5.43-18.74-5.43-18.74h4.25l2.54,10.73.55,2.41.56-2.34,2.16-10.79h2.13"/>
    <path class="cls-1" d="M27.04,12.42h2.13s2.16,10.79,2.16,10.79l.56,2.34.55-2.41,2.54-10.73h4.25s-5.43,18.73-5.43,18.73h-4.04s-2.2-10.85-2.2-10.85l-.5-2.52"/>
  </g>
</svg>
